<?xml version="1.0" encoding="UTF-8"?>
<svg id="Capa_2" data-name="Capa 2" xmlns="http://www.w3.org/2000/svg" viewBox="0 0 1817.05 1044.49">
  <defs>
    <style>
      .cls-1 {
        fill: #1a1a1a;
      }
    </style>
  </defs>
  <g id="Capa_1-2" data-name="Capa 1">
    <g>
      <path class="cls-1" d="M1804.23,851.38c-15.8-3.8-77-15.5-84.9-17-.6-.1-1.1-.2-1.7-.3-209.3-23.2-419.4-8.4-629.7-.9-172.2,7.6-342.7,6-516.6,12.4,125.7-250.8,171-241.9,142.4-273.8-.9-.6-1.8-1.1-2.7-1.7-23.7-6.7-34.3,40.6-47.1,50.9h0c-31.7,12.9-.8-60.7-44.7-49.2-1.4,.4-2.6,1.3-3.2,2.6-7.2,14.2,1.4,32,2.9,48.3-41.7,13.2-16.3,2-39.3-33.3-30-45.2-79.4-11.9-85.5,30.9-9.5-7.1-18.4-1.6-27.1,.4,.5-39.7-33.3-54.5-49-27.8-2-109.1-48-94.7-55-42.8-15-49.3-1.8-106.9-10.8-159.4h0c-3-35.9,9.4-137.8-28.6-127.3h0c-16.4,18.9-36.2,92.9-43.8,105.4h-1C261.13,146.28,301.83-21.22,249.13,2.18h0c-11.4,6.9-1.5,66.5-2.4,75.1-11.7,107-.2,213.3,.1,321.8,4.8,78.7-18.5,99.9-31.2,156.7-29.9,170.3-44.7,259.4-44.2,314.2-124.9,23.2-190.4-2.6-166.6,40.3,.3,.5,.8,.8,1.3,.9,53,7.7,109.8-4.5,164.3-10.1,3.2,44.9,14.5,90.9,17.8,135.9,.1,.8,.5,1.5,1.1,2,11,8.5,30.4,8.7,31.1-10.5,16.2-66,22.8-114.3,32.4-141.2,92-11.3,183.2-9.1,275.5-13.9-17.8,35.9,4.5,48.9,21.7,33.8,.6-.5,.9-1.2,.9-2,.7-26.3,2.8-36.5,32.5-34.4h0c123.8-6.3,243.8-4.6,367.9-8.1,261-7.3,518.7-28.9,780.8-11.2,15.8,3,120.9,7.4,72.1-.1ZM212.33,917.38c-1.3,7.3-3.1,14.4-4.3,21.8-.1,.9-.9,1.6-1.9,1.5-5.7-47.7-9.7-45.1,11.1-47.8-1.6,8.6-3.5,16.5-4.9,24.5Zm37-353.9c-3.3,80.2,2.4,316.3-44.9,303.6-1.1-.3-1.8-1.3-1.8-2.4-3.4-77.7,50.3-401.6,46.7-301.2Zm276.2,62.8c1.5-5.5,2.6-10.9,4.9-15.7,5.1-12.5,27-21.7,25.1-3.1-.3,.8-.5,1.6-.8,2.5-5.4,9.2-21.8,31.6-28.6,21-.9-1.4-1-3.1-.6-4.7Zm33.2,183.5c-8.9,10.5-13.1,41.2-25.2,38.3-90.6,3.7-182.7,3.4-274.3,11,52.8-335.1-21.2-349.5,60.8-518,6.7,78.8,3,159.2,13.5,238.9h0c2.5,31.4-6.8,59.6-.4,91.2,.5,1.2,1,2.3,1.6,3.4,7.5,9.2,30.8,10.8,30-3.6v-1.7c4-29.4,7.3-57.4,19.6-86,5.5,24.3-2.2,54.2,5.4,78.7,.5,1.7,1.6,3.1,3.1,4,34.8,21.1,27.6-20.8,41.5-37.1-1.6,42.3,24.5,43.6,48.3,14.1,3.4,7.6,5.8,15.8,15.5,17.4,1.4,.2,2.9-.5,3.5-1.8,.9-1.8,1.9-4,3.1-6.3,35.4,19.1,41.7,13.9,62.4-6.7,46.2,30.6,50.6-15.1,81.1,3.9-30,52.7-59.8,106.1-89.5,160.3h0Z"/>
      <path class="cls-1" d="M788.83,650.38c12-11.1,19.6-26.5,20.3-44,0-.6,.5-1,1.1-1,26.6,2.1,19-.9,21,23.5,.1,1.7,1,3.2,2.3,4.2,43,32.2,20.2-30.2,44.4-44.1,43.3-41.5,89.4-51.5,105.2-77.7-9-27.9-134.3,55.2-140.9,65.4-12-3-26.3-1-37.2,8.6-.5,.5-1.3,.3-1.6-.4-18.9-46.3-93.3-7.3-75.9,35.3,4.2,30.7,25.1,35.1,47.5,35.4,5.1,0,10-1.8,13.8-5.2Zm-28.6-49.7c7.2-3.2,17.4-15.8,19.1,.4-.3,7.3-13.6,33.3-19.8,21-.2-.3-.1-.7,0-1,6.8-11.1-4.2-14.5,.7-20.4Z"/>
      <path class="cls-1" d="M165.53,203.68c-.3,.1-.1-1.2-1.3-.2,.2,.2,.3,.4,.5,.7,.3-.2,.6-.4,.8-.5Z"/>
    </g>
  </g>
</svg>